<svg id="fc6a2bf4-f166-4103-9df2-b05b5fd03ce7" data-name="Layer 1" xmlns="http://www.w3.org/2000/svg" width="85.24676" height="43.09081" viewBox="0 0 85.24676 43.09081">
  <defs>
    <style>
      .bbe561bb-44f3-422f-aa64-7e6fd11e0fdf {
        fill: #58595b;
      }

      .a5e39c1f-e713-4804-ae0d-0b5c7b8e77bf, .bf34916a-e03f-494d-9a90-419a26f663cd, .f932f435-1f51-4bab-a156-1e216bda8f60 {
        fill: none;
        stroke: #231f20;
      }

      .a5e39c1f-e713-4804-ae0d-0b5c7b8e77bf, .f932f435-1f51-4bab-a156-1e216bda8f60 {
        stroke-linecap: round;
        stroke-linejoin: round;
      }

      .a5e39c1f-e713-4804-ae0d-0b5c7b8e77bf {
        stroke-width: 3px;
      }

      .bf34916a-e03f-494d-9a90-419a26f663cd {
        stroke-miterlimit: 10;
      }

      .bf34916a-e03f-494d-9a90-419a26f663cd, .f932f435-1f51-4bab-a156-1e216bda8f60 {
        stroke-width: 2px;
      }

      .b29cc4e1-d227-4a3e-983f-199952499ad1 {
        fill: #231f20;
      }
    </style>
  </defs>
  <title>RM icons - Packster 40 Carry System rain cover</title>
  <g>
    <path class="bbe561bb-44f3-422f-aa64-7e6fd11e0fdf" d="M68.06441,7.00746c-1.87619-.56082-3.87422-2.305-4.866-2.7996a1.70007,1.70007,0,0,0-2.28748.78223,8.7495,8.7495,0,0,1-2.663,3.47388c-1.98157,1.21093-15.29944,4.62378-15.29944,4.62378l.01819,4.76074H67.50183s.83985-4.40137,1.57874-8.35523C69.34217,8.09336,69.24185,7.35942,68.06441,7.00746Zm-8.57959,4.77017-.71312,2.63091a.98477.98477,0,0,1-.95105.73H50.52976a.98476.98476,0,0,1-.46-1.85547l8.0039-2.63091A.98473.98473,0,0,1,59.48482,11.77763Zm6.57576-1.05571-3.86374,4.17257a.57117.57117,0,0,1-.97644-.50686c.28553-1.35713.91574-3.39174,1.096-4.18764a.56627.56627,0,0,1,.55649-.44074l2.771,0A.57154.57154,0,0,1,66.06058,10.72192Z"/>
    <path class="bbe561bb-44f3-422f-aa64-7e6fd11e0fdf" d="M67.50184,17.84859,60.83529,30.5175a.73846.73846,0,0,1-.72377.42094L43.631,29.68417a.73848.73848,0,0,1-.68244-.73635l.01812-11.09923c0-.423,24.53517,0,24.53517,0C67.50184,17.95766,67.54842,17.75,67.50184,17.84859Z"/>
    <circle class="a5e39c1f-e713-4804-ae0d-0b5c7b8e77bf" cx="12.56838" cy="30.52243" r="11.06838"/>
    <polyline class="a5e39c1f-e713-4804-ae0d-0b5c7b8e77bf" points="13.967 27.427 60.618 30.977 68.38 16.775"/>
    <line class="a5e39c1f-e713-4804-ae0d-0b5c7b8e77bf" x1="29.48986" y1="32.38067" x2="19.74676" y2="3.31651"/>
    <line class="a5e39c1f-e713-4804-ae0d-0b5c7b8e77bf" x1="15.94861" y1="3.31651" x2="25.444" y2="3.31651"/>
    <polyline class="a5e39c1f-e713-4804-ae0d-0b5c7b8e77bf" points="42.949 30.977 42.949 1.5 45.591 1.5"/>
    <line class="a5e39c1f-e713-4804-ae0d-0b5c7b8e77bf" x1="74.65491" y1="32.38067" x2="67.96685" y2="14.54585"/>
    <line class="a5e39c1f-e713-4804-ae0d-0b5c7b8e77bf" x1="42.94855" y1="21.25437" x2="25.76002" y2="21.25437"/>
    <line class="a5e39c1f-e713-4804-ae0d-0b5c7b8e77bf" x1="23.91189" y1="16.2385" x2="13.96696" y2="27.42655"/>
    <circle class="bf34916a-e03f-494d-9a90-419a26f663cd" cx="12.25518" cy="30.52243" r="3.70655"/>
    <circle class="bf34916a-e03f-494d-9a90-419a26f663cd" cx="75.56317" cy="32.38067" r="0.59218"/>
    <line class="a5e39c1f-e713-4804-ae0d-0b5c7b8e77bf" x1="12.25518" y1="30.52243" x2="13.96696" y2="27.42655"/>
    <circle class="a5e39c1f-e713-4804-ae0d-0b5c7b8e77bf" cx="75.6243" cy="32.97285" r="8.12246"/>
    <line class="f932f435-1f51-4bab-a156-1e216bda8f60" x1="42.96667" y1="17.84859" x2="67.50184" y2="17.84859"/>
    <line class="f932f435-1f51-4bab-a156-1e216bda8f60" x1="48.20117" y1="30.03199" x2="49.65092" y2="17.84859"/>
    <line class="f932f435-1f51-4bab-a156-1e216bda8f60" x1="55.66411" y1="30.52243" x2="59.67912" y2="17.84859"/>
    <path class="b29cc4e1-d227-4a3e-983f-199952499ad1" d="M33.42965,34.36073a11.099,11.099,0,0,1-3.75277,1.21675,3.17237,3.17237,0,0,1-3.19681-3.19681h0a3.19681,3.19681,0,0,1,3.19681-3.19681h2.843c1.76555,0,3.16258,1.00267,3.16258,2.52555S34.58561,33.81027,33.42965,34.36073Z"/>
  </g>
</svg>
