<svg id="e1675dd2-5342-4b75-87e6-814df19887c4" data-name="Layer 1" xmlns="http://www.w3.org/2000/svg" width="93.36476" height="40.28587" viewBox="0 0 93.36476 40.28587">
  <defs>
    <style>
      .ba605333-78d6-4130-90dc-11a5eba1fc33 {
        fill: #58595b;
      }

      .a3438320-4d16-43e3-9016-d4f91140762f, .b8759e41-4fcf-46a9-9fc1-612e23278dbd, .e8973024-c278-44af-9ef0-f2660aa16a96 {
        fill: none;
        stroke: #231f20;
      }

      .b8759e41-4fcf-46a9-9fc1-612e23278dbd, .e8973024-c278-44af-9ef0-f2660aa16a96 {
        stroke-linecap: round;
        stroke-linejoin: round;
      }

      .b8759e41-4fcf-46a9-9fc1-612e23278dbd {
        stroke-width: 3px;
      }

      .a3438320-4d16-43e3-9016-d4f91140762f, .e8973024-c278-44af-9ef0-f2660aa16a96 {
        stroke-width: 2px;
      }

      .a3438320-4d16-43e3-9016-d4f91140762f {
        stroke-miterlimit: 10;
      }

      .b9a650b0-eba3-41a1-8404-aaa0ab34b9d5 {
        fill: #231f20;
      }
    </style>
  </defs>
  <title>RM icons - Load 60 RM canopy</title>
  <g>
    <path class="ba605333-78d6-4130-90dc-11a5eba1fc33" d="M75.29216,16.94667,69.02251,31.16515H44.64438l-.622-9.68544.78-18.41091S70.17586.96555,76.19583,13.21942l-.90367,3.72725"/>
    <circle class="b8759e41-4fcf-46a9-9fc1-612e23278dbd" cx="12.56838" cy="27.71749" r="11.06838"/>
    <circle class="b8759e41-4fcf-46a9-9fc1-612e23278dbd" cx="83.7423" cy="30.6634" r="8.12246"/>
    <polyline class="b8759e41-4fcf-46a9-9fc1-612e23278dbd" points="44.771 32.634 43.646 15.124 44.802 3.069 41.995 1.5"/>
    <polyline class="b8759e41-4fcf-46a9-9fc1-612e23278dbd" points="70.839 26.271 44.022 20.978 24.914 17.148"/>
    <line class="e8973024-c278-44af-9ef0-f2660aa16a96" x1="23.33922" y1="13.45287" x2="28.64262" y2="17.89554"/>
    <polyline class="b8759e41-4fcf-46a9-9fc1-612e23278dbd" points="75.62 15.702 69.023 30.663 44.644 30.663 29.053 26.859"/>
    <line class="b8759e41-4fcf-46a9-9fc1-612e23278dbd" x1="74.80232" y1="13.72016" x2="82.64634" y2="31.14214"/>
    <line class="b8759e41-4fcf-46a9-9fc1-612e23278dbd" x1="49.81155" y1="30.6634" x2="54.27025" y2="23.05432"/>
    <line class="b8759e41-4fcf-46a9-9fc1-612e23278dbd" x1="58.76514" y1="24.32333" x2="61.92161" y2="30.6634"/>
    <polyline class="b8759e41-4fcf-46a9-9fc1-612e23278dbd" points="12.568 27.717 29.857 28.748 19.371 4.142"/>
    <line class="b8759e41-4fcf-46a9-9fc1-612e23278dbd" x1="24.4905" y1="4.1422" x2="15.24281" y2="4.1422"/>
    <polyline class="e8973024-c278-44af-9ef0-f2660aa16a96" points="12.568 27.717 29.857 21.069 36.463 22.431 39.725 20.117"/>
    <circle class="a3438320-4d16-43e3-9016-d4f91140762f" cx="12.56838" cy="27.71749" r="3.70655"/>
    <circle class="a3438320-4d16-43e3-9016-d4f91140762f" cx="83.7423" cy="30.6634" r="0.59218"/>
    <path class="b9a650b0-eba3-41a1-8404-aaa0ab34b9d5" d="M34.20583,32.72771a11.099,11.099,0,0,1-3.75277,1.21675,3.17236,3.17236,0,0,1-3.19681-3.19681h0a3.19681,3.19681,0,0,1,3.19681-3.19681h2.843c1.76555,0,3.16257,1.00267,3.16257,2.52555S35.36179,32.17725,34.20583,32.72771Z"/>
  </g>
</svg>
