<svg id="fca1e9a6-65e0-40b0-81db-52d5c23c487e" data-name="Layer 1" xmlns="http://www.w3.org/2000/svg" width="93.24676" height="55.70188" viewBox="0 0 93.24676 55.70188">
  <defs>
    <style>
      .f2914c2f-3ace-4933-b52e-1600137068ef {
        fill: #58595b;
      }

      .e7663508-aba2-499e-be2b-350025630807, .fba99726-1e9b-4387-ae52-50f9962529e2 {
        fill: none;
        stroke: #231f20;
      }

      .e7663508-aba2-499e-be2b-350025630807 {
        stroke-linecap: round;
        stroke-linejoin: round;
        stroke-width: 3px;
      }

      .fba99726-1e9b-4387-ae52-50f9962529e2 {
        stroke-miterlimit: 10;
        stroke-width: 2px;
      }

      .a0df5b0c-07fd-4be4-84a4-453681c65638 {
        fill: #231f20;
      }
    </style>
  </defs>
  <title>RM icons - Packster 80 Blaqpaks canopy</title>
  <g>
    <polygon class="f2914c2f-3ace-4933-b52e-1600137068ef" points="75.895 32.065 70.941 44.339 43.404 42.794 43.404 32.065 75.895 32.065"/>
    <path class="f2914c2f-3ace-4933-b52e-1600137068ef" d="M45.95645,6.94025c12.50268,2.6045,27.01013,7.73816,27.37841,20.71057L68.44229,41.17048,45.95657,39.41621l-.00012-32.476m-3-3.63745.00012,38.88843L70.486,44.33906l5.85595-16.18189C76.34194,10.409,55.03945,5.491,42.95645,3.3028Z"/>
    <g>
      <circle class="e7663508-aba2-499e-be2b-350025630807" cx="12.56838" cy="43.13351" r="11.06838"/>
      <polyline class="e7663508-aba2-499e-be2b-350025630807" points="13.967 40.038 70.486 44.339 76.38 29.386"/>
      <line class="e7663508-aba2-499e-be2b-350025630807" x1="29.48986" y1="44.99174" x2="19.74676" y2="15.92758"/>
      <line class="e7663508-aba2-499e-be2b-350025630807" x1="15.94861" y1="15.92758" x2="25.444" y2="15.92758"/>
      <polyline class="e7663508-aba2-499e-be2b-350025630807" points="42.949 43.588 42.949 14.111 45.591 14.111"/>
      <line class="e7663508-aba2-499e-be2b-350025630807" x1="82.65491" y1="44.99174" x2="75.96685" y2="27.15692"/>
      <line class="e7663508-aba2-499e-be2b-350025630807" x1="25.76002" y1="33.86544" x2="42.94855" y2="33.86544"/>
      <line class="e7663508-aba2-499e-be2b-350025630807" x1="23.91189" y1="28.84957" x2="13.96696" y2="40.03763"/>
      <circle class="fba99726-1e9b-4387-ae52-50f9962529e2" cx="12.25518" cy="43.13351" r="3.70655"/>
      <circle class="fba99726-1e9b-4387-ae52-50f9962529e2" cx="83.56317" cy="44.99174" r="0.59218"/>
      <line class="e7663508-aba2-499e-be2b-350025630807" x1="12.25518" y1="43.13351" x2="13.96696" y2="40.03763"/>
      <circle class="e7663508-aba2-499e-be2b-350025630807" cx="83.6243" cy="45.58392" r="8.12246"/>
    </g>
    <path class="a0df5b0c-07fd-4be4-84a4-453681c65638" d="M33.24263,46.9718a11.09873,11.09873,0,0,1-3.75277,1.21675,3.17236,3.17236,0,0,1-3.1968-3.1968h0a3.1968,3.1968,0,0,1,3.1968-3.1968h2.843c1.76555,0,3.16258,1.00266,3.16258,2.52554S34.3986,46.42134,33.24263,46.9718Z"/>
  </g>
</svg>
