<svg id="bb93cf22-3f7c-454f-8723-ccaebdcca325" data-name="Layer 1" xmlns="http://www.w3.org/2000/svg" width="85.24676" height="43.09081" viewBox="0 0 85.24676 43.09081">
  <defs>
    <style>
      .e3f42dbf-2165-4d16-b13b-bc07dae5889e {
        fill: #58595b;
      }

      .a1d0eaea-e8e9-4291-87c3-47c0b6926885, .fd3e255a-1231-4bba-9a09-36e7ff96b3bb {
        fill: none;
        stroke: #231f20;
      }

      .fd3e255a-1231-4bba-9a09-36e7ff96b3bb {
        stroke-linecap: round;
        stroke-linejoin: round;
        stroke-width: 3px;
      }

      .a1d0eaea-e8e9-4291-87c3-47c0b6926885 {
        stroke-miterlimit: 10;
        stroke-width: 2px;
      }

      .f29ac666-de38-494a-a2fb-5c6212b4bc4c {
        fill: #231f20;
      }
    </style>
  </defs>
  <title>RM icons - Packster 40 RM canopy</title>
  <g>
    <path class="e3f42dbf-2165-4d16-b13b-bc07dae5889e" d="M68.54394,13.25575,60.61824,30.977,42.94855,29.63223,42.94848,2.45411C51.97119,2.7422,60.55444,5.996,68.54394,13.25575Z"/>
    <g>
      <circle class="fd3e255a-1231-4bba-9a09-36e7ff96b3bb" cx="12.56838" cy="30.52243" r="11.06838"/>
      <polyline class="fd3e255a-1231-4bba-9a09-36e7ff96b3bb" points="13.967 27.427 60.618 30.977 68.38 16.775"/>
      <line class="fd3e255a-1231-4bba-9a09-36e7ff96b3bb" x1="29.48986" y1="32.38067" x2="19.74676" y2="3.31651"/>
      <line class="fd3e255a-1231-4bba-9a09-36e7ff96b3bb" x1="15.94861" y1="3.31651" x2="25.444" y2="3.31651"/>
      <polyline class="fd3e255a-1231-4bba-9a09-36e7ff96b3bb" points="42.949 30.977 42.949 1.5 45.591 1.5"/>
      <line class="fd3e255a-1231-4bba-9a09-36e7ff96b3bb" x1="74.65491" y1="32.38067" x2="67.96685" y2="14.54585"/>
      <line class="fd3e255a-1231-4bba-9a09-36e7ff96b3bb" x1="42.94855" y1="21.25437" x2="25.76002" y2="21.25437"/>
      <line class="fd3e255a-1231-4bba-9a09-36e7ff96b3bb" x1="23.91189" y1="16.2385" x2="13.96696" y2="27.42655"/>
      <circle class="a1d0eaea-e8e9-4291-87c3-47c0b6926885" cx="12.25518" cy="30.52243" r="3.70655"/>
      <circle class="a1d0eaea-e8e9-4291-87c3-47c0b6926885" cx="75.56317" cy="32.38067" r="0.59218"/>
      <line class="fd3e255a-1231-4bba-9a09-36e7ff96b3bb" x1="12.25518" y1="30.52243" x2="13.96696" y2="27.42655"/>
      <circle class="fd3e255a-1231-4bba-9a09-36e7ff96b3bb" cx="75.6243" cy="32.97285" r="8.12246"/>
    </g>
    <path class="f29ac666-de38-494a-a2fb-5c6212b4bc4c" d="M33.28779,34.36073A11.099,11.099,0,0,1,29.535,35.57748a3.17236,3.17236,0,0,1-3.1968-3.19681h0a3.19681,3.19681,0,0,1,3.1968-3.19681h2.843c1.76555,0,3.16258,1.00267,3.16258,2.52555S34.44376,33.81027,33.28779,34.36073Z"/>
  </g>
</svg>
