<svg id="a1ac1aa1-3d3c-4d8d-b5e4-870332f4c844" data-name="Layer 1" xmlns="http://www.w3.org/2000/svg" width="89.24676" height="43.59531" viewBox="0 0 89.24676 43.59531">
  <defs>
    <style>
      .b9b7a628-c347-45a5-ba5f-4b157bc72b76 {
        fill: #58595b;
      }

      .affa441e-ce39-4984-a243-9e37e5692ee7, .b390c235-81f5-41ab-902b-ab9a9987d323, .bdd6b89d-705d-4fcb-9467-62b9c28515d6 {
        fill: none;
      }

      .b390c235-81f5-41ab-902b-ab9a9987d323 {
        stroke: #58595b;
      }

      .affa441e-ce39-4984-a243-9e37e5692ee7, .b390c235-81f5-41ab-902b-ab9a9987d323 {
        stroke-linecap: round;
        stroke-linejoin: round;
        stroke-width: 3px;
      }

      .affa441e-ce39-4984-a243-9e37e5692ee7, .bdd6b89d-705d-4fcb-9467-62b9c28515d6 {
        stroke: #231f20;
      }

      .bdd6b89d-705d-4fcb-9467-62b9c28515d6 {
        stroke-miterlimit: 10;
        stroke-width: 2px;
      }

      .a90578e0-2ac4-4586-8627-fdec9a5cb1ce {
        fill: #231f20;
      }
    </style>
  </defs>
  <title>RM icons - Packster 60 box</title>
  <g>
    <g>
      <polygon class="b9b7a628-c347-45a5-ba5f-4b157bc72b76" points="72.73 19.794 65.795 32.731 42.949 30.522 42.949 19.794 72.73 19.794"/>
      <line class="b390c235-81f5-41ab-902b-ab9a9987d323" x1="64.63918" y1="30.94385" x2="72.2266" y2="16.2385"/>
      <line class="b390c235-81f5-41ab-902b-ab9a9987d323" x1="44.26965" y1="14.97823" x2="44.26965" y2="27.42655"/>
      <circle class="affa441e-ce39-4984-a243-9e37e5692ee7" cx="12.56838" cy="30.52243" r="11.06838"/>
      <polyline class="affa441e-ce39-4984-a243-9e37e5692ee7" points="13.967 27.427 65.795 32.731 73.029 18.377"/>
      <line class="affa441e-ce39-4984-a243-9e37e5692ee7" x1="29.48986" y1="32.38067" x2="19.74676" y2="3.31651"/>
      <line class="affa441e-ce39-4984-a243-9e37e5692ee7" x1="15.94861" y1="3.31651" x2="25.444" y2="3.31651"/>
      <polyline class="affa441e-ce39-4984-a243-9e37e5692ee7" points="42.949 30.977 42.949 1.5 45.591 1.5"/>
      <line class="affa441e-ce39-4984-a243-9e37e5692ee7" x1="78.65491" y1="33.38067" x2="72.2266" y2="16.2385"/>
      <line class="affa441e-ce39-4984-a243-9e37e5692ee7" x1="25.76002" y1="21.25437" x2="42.94855" y2="21.25437"/>
      <line class="affa441e-ce39-4984-a243-9e37e5692ee7" x1="23.91189" y1="16.2385" x2="13.96696" y2="27.42655"/>
      <circle class="bdd6b89d-705d-4fcb-9467-62b9c28515d6" cx="12.25518" cy="30.52243" r="3.70655"/>
      <circle class="bdd6b89d-705d-4fcb-9467-62b9c28515d6" cx="79.56317" cy="33.38067" r="0.59218"/>
      <line class="affa441e-ce39-4984-a243-9e37e5692ee7" x1="12.25518" y1="30.52243" x2="13.96696" y2="27.42655"/>
      <circle class="affa441e-ce39-4984-a243-9e37e5692ee7" cx="79.6243" cy="33.97285" r="8.12246"/>
    </g>
    <path class="a90578e0-2ac4-4586-8627-fdec9a5cb1ce" d="M32.7096,34.36073a11.099,11.099,0,0,1-3.75277,1.21675A3.17236,3.17236,0,0,1,25.76,32.38067h0a3.19681,3.19681,0,0,1,3.19681-3.19681h2.843c1.76555,0,3.16257,1.00267,3.16257,2.52555S33.86556,33.81027,32.7096,34.36073Z"/>
  </g>
</svg>
