<svg id="aa4fbae4-ecaf-4f57-a185-67433dd5ece3" data-name="Layer 1" xmlns="http://www.w3.org/2000/svg" width="99.36476" height="40.28587" viewBox="0 0 99.36476 40.28587">
  <defs>
    <style>
      .b0ea2a56-7761-4e64-827c-fdf96c5cbf05 {
        fill: #58595b;
      }

      .b3465ee0-1e87-48eb-9b3d-f291c221b460, .f1f5f02e-8255-4d61-bab1-351d438e4b99, .f783c811-7ef8-4b60-9eb1-88a21e433835 {
        fill: none;
        stroke: #231f20;
      }

      .b3465ee0-1e87-48eb-9b3d-f291c221b460, .f783c811-7ef8-4b60-9eb1-88a21e433835 {
        stroke-linecap: round;
        stroke-linejoin: round;
      }

      .f783c811-7ef8-4b60-9eb1-88a21e433835 {
        stroke-width: 3px;
      }

      .b3465ee0-1e87-48eb-9b3d-f291c221b460, .f1f5f02e-8255-4d61-bab1-351d438e4b99 {
        stroke-width: 2px;
      }

      .f1f5f02e-8255-4d61-bab1-351d438e4b99 {
        stroke-miterlimit: 10;
      }

      .e79f4c97-627b-4d67-96da-5098b91d6c73 {
        fill: #231f20;
      }
    </style>
  </defs>
  <title>RM icons - Load 75 high</title>
  <g>
    <polygon class="b0ea2a56-7761-4e64-827c-fdf96c5cbf05" points="44.004 11.393 80.641 17.922 75.023 30.663 44.644 30.663 43.646 15.124 44.004 11.393"/>
    <circle class="f783c811-7ef8-4b60-9eb1-88a21e433835" cx="12.56838" cy="27.71749" r="11.06838"/>
    <circle class="f783c811-7ef8-4b60-9eb1-88a21e433835" cx="89.7423" cy="30.6634" r="8.12246"/>
    <polyline class="f783c811-7ef8-4b60-9eb1-88a21e433835" points="44.771 32.634 43.646 15.124 44.802 3.069 41.995 1.5"/>
    <polyline class="f783c811-7ef8-4b60-9eb1-88a21e433835" points="76.839 26.271 44.022 20.978 24.914 17.148"/>
    <line class="b3465ee0-1e87-48eb-9b3d-f291c221b460" x1="23.33922" y1="13.45287" x2="28.64262" y2="17.89554"/>
    <polyline class="f783c811-7ef8-4b60-9eb1-88a21e433835" points="81.62 15.702 75.023 30.663 44.644 30.663 29.053 26.859"/>
    <line class="f783c811-7ef8-4b60-9eb1-88a21e433835" x1="88.64634" y1="31.14214" x2="80.80232" y2="13.72016"/>
    <line class="f783c811-7ef8-4b60-9eb1-88a21e433835" x1="52.81155" y1="30.6634" x2="56.89673" y2="23.05432"/>
    <line class="f783c811-7ef8-4b60-9eb1-88a21e433835" x1="64.76514" y1="24.32333" x2="67.92161" y2="30.6634"/>
    <polyline class="f783c811-7ef8-4b60-9eb1-88a21e433835" points="12.568 27.717 29.857 28.748 19.371 4.142"/>
    <line class="f783c811-7ef8-4b60-9eb1-88a21e433835" x1="24.4905" y1="4.1422" x2="15.24281" y2="4.1422"/>
    <polyline class="b3465ee0-1e87-48eb-9b3d-f291c221b460" points="12.568 27.717 29.857 21.069 36.463 22.431 39.725 20.117"/>
    <circle class="f1f5f02e-8255-4d61-bab1-351d438e4b99" cx="12.56838" cy="27.71749" r="3.70655"/>
    <circle class="f1f5f02e-8255-4d61-bab1-351d438e4b99" cx="89.7423" cy="30.6634" r="0.59218"/>
    <path class="e79f4c97-627b-4d67-96da-5098b91d6c73" d="M34.20583,32.72771a11.099,11.099,0,0,1-3.75277,1.21675,3.17236,3.17236,0,0,1-3.19681-3.19681h0a3.19681,3.19681,0,0,1,3.19681-3.19681h2.843c1.76555,0,3.16257,1.00267,3.16257,2.52555S35.36179,32.17725,34.20583,32.72771Z"/>
  </g>
</svg>
