<svg id="e0131b2b-ced6-4175-b40b-327ebce5ae95" data-name="Layer 1" xmlns="http://www.w3.org/2000/svg" width="93.24676" height="43.09081" viewBox="0 0 93.24676 43.09081">
  <defs>
    <style>
      .e723a46b-b672-43d0-bb05-080a7813244b {
        fill: #58595b;
      }

      .f1e60b9e-594f-4bd2-b793-1bc542d40b28, .f1eaecd8-d78a-4a2f-8cf7-1053598b15f6 {
        fill: none;
        stroke: #231f20;
      }

      .f1e60b9e-594f-4bd2-b793-1bc542d40b28 {
        stroke-linecap: round;
        stroke-linejoin: round;
        stroke-width: 3px;
      }

      .f1eaecd8-d78a-4a2f-8cf7-1053598b15f6 {
        stroke-miterlimit: 10;
        stroke-width: 2px;
      }

      .ba952872-89f4-41c0-bf77-1b27c288af19 {
        fill: #231f20;
      }
    </style>
  </defs>
  <title>RM icons - Packster 80 RM canopy</title>
  <g>
    <path class="e723a46b-b672-43d0-bb05-080a7813244b" d="M76.34193,13.36984,70.48593,31.728,42.94855,30.18292l.00007-27.68283C55.50892,2.73519,66.7223,6.16329,76.34193,13.36984Z"/>
    <g>
      <circle class="f1e60b9e-594f-4bd2-b793-1bc542d40b28" cx="12.56838" cy="30.52243" r="11.06838"/>
      <polyline class="f1e60b9e-594f-4bd2-b793-1bc542d40b28" points="13.967 27.427 70.486 31.728 76.38 16.775"/>
      <line class="f1e60b9e-594f-4bd2-b793-1bc542d40b28" x1="29.48986" y1="32.38067" x2="19.74676" y2="3.31651"/>
      <line class="f1e60b9e-594f-4bd2-b793-1bc542d40b28" x1="15.94861" y1="3.31651" x2="25.444" y2="3.31651"/>
      <polyline class="f1e60b9e-594f-4bd2-b793-1bc542d40b28" points="42.949 30.977 42.949 1.5 45.591 1.5"/>
      <line class="f1e60b9e-594f-4bd2-b793-1bc542d40b28" x1="82.65491" y1="32.38067" x2="75.96685" y2="14.54585"/>
      <line class="f1e60b9e-594f-4bd2-b793-1bc542d40b28" x1="25.76002" y1="21.25437" x2="42.94855" y2="21.25437"/>
      <line class="f1e60b9e-594f-4bd2-b793-1bc542d40b28" x1="23.91189" y1="16.2385" x2="13.96696" y2="27.42655"/>
      <circle class="f1eaecd8-d78a-4a2f-8cf7-1053598b15f6" cx="12.25518" cy="30.52243" r="3.70655"/>
      <circle class="f1eaecd8-d78a-4a2f-8cf7-1053598b15f6" cx="83.56317" cy="32.38067" r="0.59218"/>
      <line class="f1e60b9e-594f-4bd2-b793-1bc542d40b28" x1="12.25518" y1="30.52243" x2="13.96696" y2="27.42655"/>
      <circle class="f1e60b9e-594f-4bd2-b793-1bc542d40b28" cx="83.6243" cy="32.97285" r="8.12246"/>
    </g>
    <path class="ba952872-89f4-41c0-bf77-1b27c288af19" d="M33.27074,34.36073A11.099,11.099,0,0,1,29.518,35.57748a3.17236,3.17236,0,0,1-3.19681-3.19681h0A3.19681,3.19681,0,0,1,29.518,29.18386h2.843c1.76555,0,3.16257,1.00267,3.16257,2.52555S34.4267,33.81027,33.27074,34.36073Z"/>
  </g>
</svg>
