<svg id="fbcbf13f-234f-4d71-8aeb-40ffe45e719d" data-name="Layer 1" xmlns="http://www.w3.org/2000/svg" width="99.36476" height="40.28587" viewBox="0 0 99.36476 40.28587">
  <defs>
    <style>
      .a5d3fb38-a382-4bfa-afb6-27d901bfd28f, .b3156a75-2a76-4a6d-b97f-7ccd1fc37cca, .ea135bb1-5b4c-4979-9ba6-7d069e353167 {
        fill: none;
        stroke: #231f20;
      }

      .b3156a75-2a76-4a6d-b97f-7ccd1fc37cca, .ea135bb1-5b4c-4979-9ba6-7d069e353167 {
        stroke-linecap: round;
        stroke-linejoin: round;
      }

      .ea135bb1-5b4c-4979-9ba6-7d069e353167 {
        stroke-width: 3px;
      }

      .a5d3fb38-a382-4bfa-afb6-27d901bfd28f, .b3156a75-2a76-4a6d-b97f-7ccd1fc37cca {
        stroke-width: 2px;
      }

      .a5d3fb38-a382-4bfa-afb6-27d901bfd28f {
        stroke-miterlimit: 10;
      }

      .ff2fbf1d-2064-4977-8549-3602988b8dfe {
        fill: #231f20;
      }
    </style>
  </defs>
  <title>RM icons - Load 75 naked</title>
  <g>
    <circle class="ea135bb1-5b4c-4979-9ba6-7d069e353167" cx="12.56838" cy="27.71749" r="11.06838"/>
    <circle class="ea135bb1-5b4c-4979-9ba6-7d069e353167" cx="89.7423" cy="30.6634" r="8.12246"/>
    <polyline class="ea135bb1-5b4c-4979-9ba6-7d069e353167" points="44.771 32.634 43.646 15.124 44.802 3.069 41.995 1.5"/>
    <polyline class="ea135bb1-5b4c-4979-9ba6-7d069e353167" points="76.839 26.271 44.022 20.978 24.914 17.148"/>
    <line class="b3156a75-2a76-4a6d-b97f-7ccd1fc37cca" x1="23.33922" y1="13.45287" x2="28.64262" y2="17.89554"/>
    <polyline class="ea135bb1-5b4c-4979-9ba6-7d069e353167" points="81.62 15.702 75.023 30.663 44.644 30.663 29.053 26.859"/>
    <line class="ea135bb1-5b4c-4979-9ba6-7d069e353167" x1="88.64634" y1="31.14214" x2="80.80232" y2="13.72016"/>
    <line class="ea135bb1-5b4c-4979-9ba6-7d069e353167" x1="52.81155" y1="30.6634" x2="56.89673" y2="23.05432"/>
    <line class="ea135bb1-5b4c-4979-9ba6-7d069e353167" x1="64.76514" y1="24.32333" x2="67.92161" y2="30.6634"/>
    <polyline class="ea135bb1-5b4c-4979-9ba6-7d069e353167" points="12.568 27.717 29.857 28.748 19.371 4.142"/>
    <line class="ea135bb1-5b4c-4979-9ba6-7d069e353167" x1="24.4905" y1="4.1422" x2="15.24281" y2="4.1422"/>
    <polyline class="b3156a75-2a76-4a6d-b97f-7ccd1fc37cca" points="12.568 27.717 29.857 21.069 36.463 22.431 39.725 20.117"/>
    <circle class="a5d3fb38-a382-4bfa-afb6-27d901bfd28f" cx="12.56838" cy="27.71749" r="3.70655"/>
    <circle class="a5d3fb38-a382-4bfa-afb6-27d901bfd28f" cx="89.7423" cy="30.6634" r="0.59218"/>
    <path class="ff2fbf1d-2064-4977-8549-3602988b8dfe" d="M34.20583,32.72771a11.099,11.099,0,0,1-3.75277,1.21675,3.17236,3.17236,0,0,1-3.19681-3.19681h0a3.19681,3.19681,0,0,1,3.19681-3.19681h2.843c1.76555,0,3.16257,1.00267,3.16257,2.52555S35.36179,32.17725,34.20583,32.72771Z"/>
  </g>
</svg>
