<svg id="ea0b019d-c617-47c5-95a8-e94f3ba6d702" data-name="Layer 1" xmlns="http://www.w3.org/2000/svg" width="85.24676" height="43.09081" viewBox="0 0 85.24676 43.09081">
  <defs>
    <style>
      .ef0df5b7-69a6-4279-b337-30e154523399 {
        fill: #58595b;
      }

      .ad71ac47-69b5-4263-81d9-52bd356f0af7, .be5604ba-98be-439e-92dd-899bea633684, .f5ddb143-64aa-4389-85d6-4d59a6da1f3a {
        fill: none;
        stroke: #231f20;
      }

      .ad71ac47-69b5-4263-81d9-52bd356f0af7, .f5ddb143-64aa-4389-85d6-4d59a6da1f3a {
        stroke-linecap: round;
        stroke-linejoin: round;
      }

      .f5ddb143-64aa-4389-85d6-4d59a6da1f3a {
        stroke-width: 3px;
      }

      .be5604ba-98be-439e-92dd-899bea633684 {
        stroke-miterlimit: 10;
      }

      .ad71ac47-69b5-4263-81d9-52bd356f0af7, .be5604ba-98be-439e-92dd-899bea633684 {
        stroke-width: 2px;
      }

      .a0780ec2-aa77-44b0-9b7a-f21e52a69c79 {
        fill: #231f20;
      }
    </style>
  </defs>
  <title>RM icons - Packster 40 Carry System</title>
  <g>
    <path class="ef0df5b7-69a6-4279-b337-30e154523399" d="M68.309,14.69561,60.83529,30.5175a.73846.73846,0,0,1-.72377.42094L43.631,29.68417a.73848.73848,0,0,1-.68244-.73635l0-13.616a.73349.73349,0,0,1,.77226-.73768c3.39728.19461,16.62262,1.60313,22.502-4.6129a1.23846,1.23846,0,0,1,2.15692.82549V14.3802A.73841.73841,0,0,1,68.309,14.69561Z"/>
    <circle class="f5ddb143-64aa-4389-85d6-4d59a6da1f3a" cx="12.56838" cy="30.52243" r="11.06838"/>
    <polyline class="f5ddb143-64aa-4389-85d6-4d59a6da1f3a" points="13.967 27.427 60.618 30.977 68.38 16.775"/>
    <line class="f5ddb143-64aa-4389-85d6-4d59a6da1f3a" x1="29.48986" y1="32.38067" x2="19.74676" y2="3.31651"/>
    <line class="f5ddb143-64aa-4389-85d6-4d59a6da1f3a" x1="15.94861" y1="3.31651" x2="25.444" y2="3.31651"/>
    <polyline class="f5ddb143-64aa-4389-85d6-4d59a6da1f3a" points="42.949 30.977 42.949 1.5 45.591 1.5"/>
    <line class="f5ddb143-64aa-4389-85d6-4d59a6da1f3a" x1="74.65491" y1="32.38067" x2="67.96685" y2="14.54585"/>
    <line class="f5ddb143-64aa-4389-85d6-4d59a6da1f3a" x1="42.94855" y1="21.25437" x2="25.76002" y2="21.25437"/>
    <line class="f5ddb143-64aa-4389-85d6-4d59a6da1f3a" x1="23.91189" y1="16.2385" x2="13.96696" y2="27.42655"/>
    <circle class="be5604ba-98be-439e-92dd-899bea633684" cx="12.25518" cy="30.52243" r="3.70655"/>
    <circle class="be5604ba-98be-439e-92dd-899bea633684" cx="75.56317" cy="32.38067" r="0.59218"/>
    <line class="f5ddb143-64aa-4389-85d6-4d59a6da1f3a" x1="12.25518" y1="30.52243" x2="13.96696" y2="27.42655"/>
    <circle class="f5ddb143-64aa-4389-85d6-4d59a6da1f3a" cx="75.6243" cy="32.97285" r="8.12246"/>
    <line class="ad71ac47-69b5-4263-81d9-52bd356f0af7" x1="67.50184" y1="17.84859" x2="42.96667" y2="17.84859"/>
    <line class="ad71ac47-69b5-4263-81d9-52bd356f0af7" x1="48.20117" y1="30.03199" x2="49.65092" y2="17.84859"/>
    <line class="ad71ac47-69b5-4263-81d9-52bd356f0af7" x1="55.66411" y1="30.52243" x2="59.67912" y2="17.84859"/>
    <path class="a0780ec2-aa77-44b0-9b7a-f21e52a69c79" d="M33.42965,34.36073a11.099,11.099,0,0,1-3.75277,1.21675,3.17237,3.17237,0,0,1-3.19681-3.19681h0a3.19681,3.19681,0,0,1,3.19681-3.19681h2.843c1.76555,0,3.16258,1.00267,3.16258,2.52555S34.58561,33.81027,33.42965,34.36073Z"/>
  </g>
</svg>
