<svg id="e4bd633a-1f4f-4339-becf-2b4bad2893bf" data-name="Layer 1" xmlns="http://www.w3.org/2000/svg" width="99.36476" height="40.28587" viewBox="0 0 99.36476 40.28587">
  <defs>
    <style>
      .bbdf7d0b-d67a-4430-814a-be3fedd147fc {
        fill: #58595b;
      }

      .b36a2fce-af51-40d4-8dbe-ed772abeaaff, .bdfe72b4-8a6d-4d58-b292-d44050658cb3, .ff13c043-2764-4d75-9cfd-3c055e328712 {
        fill: none;
        stroke: #231f20;
      }

      .b36a2fce-af51-40d4-8dbe-ed772abeaaff, .ff13c043-2764-4d75-9cfd-3c055e328712 {
        stroke-linecap: round;
        stroke-linejoin: round;
      }

      .ff13c043-2764-4d75-9cfd-3c055e328712 {
        stroke-width: 3px;
      }

      .b36a2fce-af51-40d4-8dbe-ed772abeaaff, .bdfe72b4-8a6d-4d58-b292-d44050658cb3 {
        stroke-width: 2px;
      }

      .bdfe72b4-8a6d-4d58-b292-d44050658cb3 {
        stroke-miterlimit: 10;
      }

      .ada49627-64b7-4fae-ae3b-42ce5d2060cc {
        fill: #231f20;
      }
    </style>
  </defs>
  <title>RM icons - Load 75 low</title>
  <g>
    <path class="bbdf7d0b-d67a-4430-814a-be3fedd147fc" d="M64.92912,19.46316l15.09939-.1525-5.006,11.35274H44.64438l-.622-9.68543,17.07951,2.75456,1.60245-2.93421A2.56444,2.56444,0,0,1,64.92912,19.46316Z"/>
    <circle class="ff13c043-2764-4d75-9cfd-3c055e328712" cx="12.56838" cy="27.71749" r="11.06838"/>
    <circle class="ff13c043-2764-4d75-9cfd-3c055e328712" cx="89.7423" cy="30.6634" r="8.12246"/>
    <polyline class="ff13c043-2764-4d75-9cfd-3c055e328712" points="44.771 32.634 43.646 15.124 44.802 3.069 41.995 1.5"/>
    <polyline class="ff13c043-2764-4d75-9cfd-3c055e328712" points="76.839 26.271 44.022 20.978 24.914 17.148"/>
    <line class="b36a2fce-af51-40d4-8dbe-ed772abeaaff" x1="23.33922" y1="13.45287" x2="28.64262" y2="17.89554"/>
    <polyline class="ff13c043-2764-4d75-9cfd-3c055e328712" points="81.62 15.702 75.023 30.663 44.644 30.663 29.053 26.859"/>
    <line class="ff13c043-2764-4d75-9cfd-3c055e328712" x1="88.64634" y1="31.14214" x2="80.80232" y2="13.72016"/>
    <line class="ff13c043-2764-4d75-9cfd-3c055e328712" x1="52.81155" y1="30.6634" x2="56.89673" y2="23.05432"/>
    <line class="ff13c043-2764-4d75-9cfd-3c055e328712" x1="64.76514" y1="24.32333" x2="67.92161" y2="30.6634"/>
    <polyline class="ff13c043-2764-4d75-9cfd-3c055e328712" points="12.568 27.717 29.857 28.748 19.371 4.142"/>
    <line class="ff13c043-2764-4d75-9cfd-3c055e328712" x1="24.4905" y1="4.1422" x2="15.24281" y2="4.1422"/>
    <polyline class="b36a2fce-af51-40d4-8dbe-ed772abeaaff" points="12.568 27.717 29.857 21.069 36.463 22.431 39.725 20.117"/>
    <circle class="bdfe72b4-8a6d-4d58-b292-d44050658cb3" cx="12.56838" cy="27.71749" r="3.70655"/>
    <circle class="bdfe72b4-8a6d-4d58-b292-d44050658cb3" cx="89.7423" cy="30.6634" r="0.59218"/>
    <path class="ada49627-64b7-4fae-ae3b-42ce5d2060cc" d="M34.20583,32.72771a11.099,11.099,0,0,1-3.75277,1.21675,3.17236,3.17236,0,0,1-3.19681-3.19681h0a3.19681,3.19681,0,0,1,3.19681-3.19681h2.843c1.76555,0,3.16257,1.00267,3.16257,2.52555S35.36179,32.17725,34.20583,32.72771Z"/>
  </g>
</svg>
