<svg id="bf50113e-1d1d-488a-ad99-e4d39c728ad0" data-name="Layer 1" xmlns="http://www.w3.org/2000/svg" width="85.24676" height="43.09081" viewBox="0 0 85.24676 43.09081">
  <defs>
    <style>
      .ba844a79-7328-4bbb-96f5-82ff2a10ea3b {
        fill: #58595b;
      }

      .b38afe94-64fa-4c0c-bc24-c63959122d69, .edb6b662-e9ee-4229-bcf0-238467c45eaa {
        fill: none;
        stroke: #231f20;
      }

      .b38afe94-64fa-4c0c-bc24-c63959122d69 {
        stroke-linecap: round;
        stroke-linejoin: round;
        stroke-width: 3px;
      }

      .edb6b662-e9ee-4229-bcf0-238467c45eaa {
        stroke-miterlimit: 10;
        stroke-width: 2px;
      }

      .a86f15d2-c9da-4330-878f-5ba3b4e6783a {
        fill: #231f20;
      }
    </style>
  </defs>
  <title>RM icons - Packster 40 box</title>
  <g>
    <polygon class="ba844a79-7328-4bbb-96f5-82ff2a10ea3b" points="66.73 19.794 60.618 30.977 42.949 29.632 42.949 19.794 66.73 19.794"/>
    <g>
      <circle class="b38afe94-64fa-4c0c-bc24-c63959122d69" cx="12.56838" cy="30.52243" r="11.06838"/>
      <polyline class="b38afe94-64fa-4c0c-bc24-c63959122d69" points="13.967 27.427 60.618 30.977 68.38 16.775"/>
      <line class="b38afe94-64fa-4c0c-bc24-c63959122d69" x1="29.48986" y1="32.38067" x2="19.74676" y2="3.31651"/>
      <line class="b38afe94-64fa-4c0c-bc24-c63959122d69" x1="15.94861" y1="3.31651" x2="25.444" y2="3.31651"/>
      <polyline class="b38afe94-64fa-4c0c-bc24-c63959122d69" points="42.949 30.977 42.949 1.5 45.591 1.5"/>
      <line class="b38afe94-64fa-4c0c-bc24-c63959122d69" x1="74.65491" y1="32.38067" x2="67.96685" y2="14.54585"/>
      <line class="b38afe94-64fa-4c0c-bc24-c63959122d69" x1="42.94855" y1="21.25437" x2="25.76002" y2="21.25437"/>
      <line class="b38afe94-64fa-4c0c-bc24-c63959122d69" x1="23.91189" y1="16.2385" x2="13.96696" y2="27.42655"/>
      <circle class="edb6b662-e9ee-4229-bcf0-238467c45eaa" cx="12.25518" cy="30.52243" r="3.70655"/>
      <circle class="edb6b662-e9ee-4229-bcf0-238467c45eaa" cx="75.56317" cy="32.38067" r="0.59218"/>
      <line class="b38afe94-64fa-4c0c-bc24-c63959122d69" x1="12.25518" y1="30.52243" x2="13.96696" y2="27.42655"/>
      <circle class="b38afe94-64fa-4c0c-bc24-c63959122d69" cx="75.6243" cy="32.97285" r="8.12246"/>
    </g>
    <path class="a86f15d2-c9da-4330-878f-5ba3b4e6783a" d="M32.7096,34.36073a11.099,11.099,0,0,1-3.75277,1.21675A3.17236,3.17236,0,0,1,25.76,32.38067h0a3.19681,3.19681,0,0,1,3.19681-3.19681h2.843c1.76555,0,3.16257,1.00267,3.16257,2.52555S33.86556,33.81027,32.7096,34.36073Z"/>
  </g>
</svg>
