<svg id="bf0affa4-1454-4e74-962c-2a2d8b5c8ac0" data-name="Layer 1" xmlns="http://www.w3.org/2000/svg" width="89.24676" height="52.88618" viewBox="0 0 89.24676 52.88618">
  <defs>
    <style>
      .f8ac5849-7d0f-4ab2-aee1-fd2cfbfd9085 {
        fill: #58595b;
      }

      .e2d5cb61-9069-4642-bb34-eb219f0806d8, .f75f1f19-7ba0-4f44-8a6d-f9a50635365e {
        fill: none;
        stroke: #231f20;
      }

      .f75f1f19-7ba0-4f44-8a6d-f9a50635365e {
        stroke-linecap: round;
        stroke-linejoin: round;
        stroke-width: 3px;
      }

      .e2d5cb61-9069-4642-bb34-eb219f0806d8 {
        stroke-miterlimit: 10;
        stroke-width: 2px;
      }

      .b35e4aa7-1d15-499d-8574-1d4a6862c38e {
        fill: #231f20;
      }
    </style>
  </defs>
  <title>RM icons - Packster 60 Blaqpaks canopy</title>
  <g>
    <polygon class="f8ac5849-7d0f-4ab2-aee1-fd2cfbfd9085" points="72.74 28.673 65.805 41.61 42.958 39.402 42.958 28.673 72.74 28.673"/>
    <path class="f8ac5849-7d0f-4ab2-aee1-fd2cfbfd9085" d="M45.94854,3.63968c12.59009,2.64416,23.4906,7.301,23.79456,20.0011L63.82488,38.81717,45.94854,37.08926V3.63968M42.94854,0V39.81326l22.8468,2.20838,6.95423-17.83326c0-17.748-17.71814-22-29.801-24.18835Z"/>
    <g>
      <circle class="f75f1f19-7ba0-4f44-8a6d-f9a50635365e" cx="12.56838" cy="39.8133" r="11.06838"/>
      <polyline class="f75f1f19-7ba0-4f44-8a6d-f9a50635365e" points="13.967 36.717 65.795 42.022 73.029 27.668"/>
      <line class="f75f1f19-7ba0-4f44-8a6d-f9a50635365e" x1="29.48986" y1="41.67154" x2="19.74676" y2="12.60738"/>
      <line class="f75f1f19-7ba0-4f44-8a6d-f9a50635365e" x1="15.94861" y1="12.60738" x2="25.444" y2="12.60738"/>
      <polyline class="f75f1f19-7ba0-4f44-8a6d-f9a50635365e" points="42.949 40.268 42.949 10.791 45.591 10.791"/>
      <line class="f75f1f19-7ba0-4f44-8a6d-f9a50635365e" x1="78.65491" y1="42.67154" x2="72.2266" y2="25.52937"/>
      <line class="f75f1f19-7ba0-4f44-8a6d-f9a50635365e" x1="25.76002" y1="30.54523" x2="42.94855" y2="30.54523"/>
      <line class="f75f1f19-7ba0-4f44-8a6d-f9a50635365e" x1="23.91189" y1="25.52937" x2="13.96696" y2="36.71742"/>
      <circle class="e2d5cb61-9069-4642-bb34-eb219f0806d8" cx="12.25518" cy="39.8133" r="3.70655"/>
      <circle class="e2d5cb61-9069-4642-bb34-eb219f0806d8" cx="79.56317" cy="42.67154" r="0.59218"/>
      <line class="f75f1f19-7ba0-4f44-8a6d-f9a50635365e" x1="12.25518" y1="39.8133" x2="13.96696" y2="36.71742"/>
      <circle class="f75f1f19-7ba0-4f44-8a6d-f9a50635365e" cx="79.6243" cy="43.26372" r="8.12246"/>
    </g>
    <path class="b35e4aa7-1d15-499d-8574-1d4a6862c38e" d="M33.24263,44.00167a11.09876,11.09876,0,0,1-3.75277,1.21676,3.17236,3.17236,0,0,1-3.1968-3.19681h0a3.19681,3.19681,0,0,1,3.1968-3.19681h2.843c1.76555,0,3.16258,1.00267,3.16258,2.52555S34.3986,43.45122,33.24263,44.00167Z"/>
  </g>
</svg>
