<svg id="add9d5c6-f376-4bd7-9d58-189476ed95c6" data-name="Layer 1" xmlns="http://www.w3.org/2000/svg" width="89.24676" height="43.59531" viewBox="0 0 89.24676 43.59531">
  <defs>
    <style>
      .bdd60d06-5b65-41cf-b670-cd0c4d9e9426 {
        fill: #58595b;
      }

      .a8cd6832-20e5-4552-8ead-fa690de5b889, .b3810c96-d07d-47c7-8d47-69403725472e {
        fill: none;
        stroke: #231f20;
      }

      .a8cd6832-20e5-4552-8ead-fa690de5b889 {
        stroke-linecap: round;
        stroke-linejoin: round;
        stroke-width: 3px;
      }

      .b3810c96-d07d-47c7-8d47-69403725472e {
        stroke-miterlimit: 10;
        stroke-width: 2px;
      }

      .a97a8c47-551f-4e2a-a9b6-f4a89619aa49 {
        fill: #231f20;
      }
    </style>
  </defs>
  <title>RM icons - Packster 60 RM canopy</title>
  <g>
    <path class="bdd60d06-5b65-41cf-b670-cd0c4d9e9426" d="M72.74951,14.89756,65.79528,32.73075,42.94855,30.52243,42.94848,2.45884C54.54126,3.22605,64.66919,6.97666,72.74951,14.89756Z"/>
    <g>
      <circle class="a8cd6832-20e5-4552-8ead-fa690de5b889" cx="12.56838" cy="30.52243" r="11.06838"/>
      <polyline class="a8cd6832-20e5-4552-8ead-fa690de5b889" points="13.967 27.427 65.795 32.731 73.029 18.377"/>
      <line class="a8cd6832-20e5-4552-8ead-fa690de5b889" x1="29.48986" y1="32.38067" x2="19.74676" y2="3.31651"/>
      <line class="a8cd6832-20e5-4552-8ead-fa690de5b889" x1="15.94861" y1="3.31651" x2="25.444" y2="3.31651"/>
      <polyline class="a8cd6832-20e5-4552-8ead-fa690de5b889" points="42.949 30.977 42.949 1.5 45.591 1.5"/>
      <line class="a8cd6832-20e5-4552-8ead-fa690de5b889" x1="78.65491" y1="33.38067" x2="72.2266" y2="16.2385"/>
      <line class="a8cd6832-20e5-4552-8ead-fa690de5b889" x1="25.76002" y1="21.25437" x2="42.94855" y2="21.25437"/>
      <line class="a8cd6832-20e5-4552-8ead-fa690de5b889" x1="23.91189" y1="16.2385" x2="13.96696" y2="27.42655"/>
      <circle class="b3810c96-d07d-47c7-8d47-69403725472e" cx="12.25518" cy="30.52243" r="3.70655"/>
      <circle class="b3810c96-d07d-47c7-8d47-69403725472e" cx="79.56317" cy="33.38067" r="0.59218"/>
      <line class="a8cd6832-20e5-4552-8ead-fa690de5b889" x1="12.25518" y1="30.52243" x2="13.96696" y2="27.42655"/>
      <circle class="a8cd6832-20e5-4552-8ead-fa690de5b889" cx="79.6243" cy="33.97285" r="8.12246"/>
    </g>
    <path class="a97a8c47-551f-4e2a-a9b6-f4a89619aa49" d="M32.97175,34.36073A11.099,11.099,0,0,1,29.219,35.57748a3.17236,3.17236,0,0,1-3.19681-3.19681h0A3.19681,3.19681,0,0,1,29.219,29.18386h2.843c1.76555,0,3.16257,1.00267,3.16257,2.52555S34.12771,33.81027,32.97175,34.36073Z"/>
  </g>
</svg>
