<svg id="b4a2413d-c13f-4a59-ac8c-c1cd0943a559" data-name="Layer 1" xmlns="http://www.w3.org/2000/svg" width="93.36476" height="40.28587" viewBox="0 0 93.36476 40.28587">
  <defs>
    <style>
      .a186f55c-c28b-4525-acaf-157503ec417b, .a849062e-6695-4546-8109-98e1e0b45a79, .b391267b-0e68-4119-938c-67f99a8cb7e1 {
        fill: none;
        stroke: #231f20;
      }

      .a186f55c-c28b-4525-acaf-157503ec417b, .a849062e-6695-4546-8109-98e1e0b45a79 {
        stroke-linecap: round;
        stroke-linejoin: round;
      }

      .a849062e-6695-4546-8109-98e1e0b45a79 {
        stroke-width: 3px;
      }

      .a186f55c-c28b-4525-acaf-157503ec417b, .b391267b-0e68-4119-938c-67f99a8cb7e1 {
        stroke-width: 2px;
      }

      .b391267b-0e68-4119-938c-67f99a8cb7e1 {
        stroke-miterlimit: 10;
      }

      .e37cea09-4b63-405c-b785-203c8f34e5b3 {
        fill: #231f20;
      }
    </style>
  </defs>
  <title>RM icons - Load 60 naked</title>
  <g>
    <circle class="a849062e-6695-4546-8109-98e1e0b45a79" cx="12.56838" cy="27.71749" r="11.06838"/>
    <circle class="a849062e-6695-4546-8109-98e1e0b45a79" cx="83.7423" cy="30.6634" r="8.12246"/>
    <polyline class="a849062e-6695-4546-8109-98e1e0b45a79" points="44.771 32.634 43.646 15.124 44.802 3.069 41.995 1.5"/>
    <polyline class="a849062e-6695-4546-8109-98e1e0b45a79" points="70.839 26.271 44.022 20.978 24.914 17.148"/>
    <line class="a186f55c-c28b-4525-acaf-157503ec417b" x1="23.33922" y1="13.45287" x2="28.64262" y2="17.89554"/>
    <polyline class="a849062e-6695-4546-8109-98e1e0b45a79" points="75.62 15.702 69.023 30.663 44.644 30.663 29.053 26.859"/>
    <line class="a849062e-6695-4546-8109-98e1e0b45a79" x1="74.80232" y1="13.72016" x2="82.64634" y2="31.14214"/>
    <line class="a849062e-6695-4546-8109-98e1e0b45a79" x1="49.81155" y1="30.6634" x2="54.27025" y2="23.05432"/>
    <line class="a849062e-6695-4546-8109-98e1e0b45a79" x1="58.76514" y1="24.32333" x2="61.92161" y2="30.6634"/>
    <polyline class="a849062e-6695-4546-8109-98e1e0b45a79" points="12.568 27.717 29.857 28.748 19.371 4.142"/>
    <line class="a849062e-6695-4546-8109-98e1e0b45a79" x1="24.4905" y1="4.1422" x2="15.24281" y2="4.1422"/>
    <polyline class="a186f55c-c28b-4525-acaf-157503ec417b" points="12.568 27.717 29.857 21.069 36.463 22.431 39.725 20.117"/>
    <circle class="b391267b-0e68-4119-938c-67f99a8cb7e1" cx="12.56838" cy="27.71749" r="3.70655"/>
    <circle class="b391267b-0e68-4119-938c-67f99a8cb7e1" cx="83.7423" cy="30.6634" r="0.59218"/>
    <path class="e37cea09-4b63-405c-b785-203c8f34e5b3" d="M34.20583,32.72771a11.099,11.099,0,0,1-3.75277,1.21675,3.17236,3.17236,0,0,1-3.19681-3.19681h0a3.19681,3.19681,0,0,1,3.19681-3.19681h2.843c1.76555,0,3.16257,1.00267,3.16257,2.52555S35.36179,32.17725,34.20583,32.72771Z"/>
  </g>
</svg>
