<svg id="e6b7d4c4-b25a-46b5-a2e5-4c7af032b6bf" data-name="Layer 1" xmlns="http://www.w3.org/2000/svg" width="93.24676" height="43.09081" viewBox="0 0 93.24676 43.09081">
  <defs>
    <style>
      .a2c371b6-216e-4dda-b148-1e343dd73613, .af6c2849-9030-4cc9-9f10-f0c249864e75, .f0f397fd-26cc-4dd6-ac1f-fbf71c26bf91 {
        fill: none;
      }

      .af6c2849-9030-4cc9-9f10-f0c249864e75 {
        stroke: #58595b;
      }

      .a2c371b6-216e-4dda-b148-1e343dd73613, .af6c2849-9030-4cc9-9f10-f0c249864e75 {
        stroke-linecap: round;
        stroke-linejoin: round;
        stroke-width: 3px;
      }

      .a5dc2abf-f116-457d-980f-2715b0e11154 {
        fill: #58595b;
      }

      .a2c371b6-216e-4dda-b148-1e343dd73613, .f0f397fd-26cc-4dd6-ac1f-fbf71c26bf91 {
        stroke: #231f20;
      }

      .f0f397fd-26cc-4dd6-ac1f-fbf71c26bf91 {
        stroke-miterlimit: 10;
        stroke-width: 2px;
      }

      .b671631a-f86f-4b37-b476-d7532e8e680e {
        fill: #231f20;
      }
    </style>
  </defs>
  <title>RM icons - Packster 80 Box</title>
  <g>
    <line class="af6c2849-9030-4cc9-9f10-f0c249864e75" x1="68.43289" y1="29.1852" x2="76.0203" y2="14.47985"/>
    <line class="af6c2849-9030-4cc9-9f10-f0c249864e75" x1="44.26965" y1="14.97823" x2="44.26965" y2="27.42655"/>
    <polygon class="a5dc2abf-f116-457d-980f-2715b0e11154" points="75.44 19.454 70.486 31.728 42.949 30.183 42.949 19.454 75.44 19.454"/>
    <g>
      <circle class="a2c371b6-216e-4dda-b148-1e343dd73613" cx="12.56838" cy="30.52243" r="11.06838"/>
      <polyline class="a2c371b6-216e-4dda-b148-1e343dd73613" points="13.967 27.427 70.486 31.728 76.38 16.775"/>
      <line class="a2c371b6-216e-4dda-b148-1e343dd73613" x1="29.48986" y1="32.38067" x2="19.74676" y2="3.31651"/>
      <line class="a2c371b6-216e-4dda-b148-1e343dd73613" x1="15.94861" y1="3.31651" x2="25.444" y2="3.31651"/>
      <polyline class="a2c371b6-216e-4dda-b148-1e343dd73613" points="42.949 30.977 42.949 1.5 45.591 1.5"/>
      <line class="a2c371b6-216e-4dda-b148-1e343dd73613" x1="82.65491" y1="32.38067" x2="75.96685" y2="14.54585"/>
      <line class="a2c371b6-216e-4dda-b148-1e343dd73613" x1="25.76002" y1="21.25437" x2="42.94855" y2="21.25437"/>
      <line class="a2c371b6-216e-4dda-b148-1e343dd73613" x1="23.91189" y1="16.2385" x2="13.96696" y2="27.42655"/>
      <circle class="f0f397fd-26cc-4dd6-ac1f-fbf71c26bf91" cx="12.25518" cy="30.52243" r="3.70655"/>
      <circle class="f0f397fd-26cc-4dd6-ac1f-fbf71c26bf91" cx="83.56317" cy="32.38067" r="0.59218"/>
      <line class="a2c371b6-216e-4dda-b148-1e343dd73613" x1="12.25518" y1="30.52243" x2="13.96696" y2="27.42655"/>
      <circle class="a2c371b6-216e-4dda-b148-1e343dd73613" cx="83.6243" cy="32.97285" r="8.12246"/>
    </g>
    <path class="b671631a-f86f-4b37-b476-d7532e8e680e" d="M32.7096,33.70805a11.09873,11.09873,0,0,1-3.75277,1.21675A3.17236,3.17236,0,0,1,25.76,31.728h0a3.19681,3.19681,0,0,1,3.19681-3.1968h2.843c1.76555,0,3.16257,1.00267,3.16257,2.52555S33.86556,33.15759,32.7096,33.70805Z"/>
  </g>
</svg>
