<svg id="b6f36ba5-f342-47c0-a089-35547712828c" data-name="Layer 1" xmlns="http://www.w3.org/2000/svg" width="93.36476" height="40.28587" viewBox="0 0 93.36476 40.28587">
  <defs>
    <style>
      .a653272b-0f94-4c56-bc63-836dd9ba32bb {
        fill: #58595b;
      }

      .a207311d-d87d-4cbf-a700-42552f7fe152, .b59eaf7a-6cd3-417b-9197-46e09fdbe776, .e7c24a23-6933-4974-b43a-e0a232e4bc51 {
        fill: none;
        stroke: #231f20;
      }

      .a207311d-d87d-4cbf-a700-42552f7fe152, .b59eaf7a-6cd3-417b-9197-46e09fdbe776 {
        stroke-linecap: round;
        stroke-linejoin: round;
      }

      .b59eaf7a-6cd3-417b-9197-46e09fdbe776 {
        stroke-width: 3px;
      }

      .a207311d-d87d-4cbf-a700-42552f7fe152, .e7c24a23-6933-4974-b43a-e0a232e4bc51 {
        stroke-width: 2px;
      }

      .e7c24a23-6933-4974-b43a-e0a232e4bc51 {
        stroke-miterlimit: 10;
      }

      .b910eb21-504a-4604-a5ce-e3dbb8256287 {
        fill: #231f20;
      }
    </style>
  </defs>
  <title>RM icons - Load 60 high</title>
  <g>
    <polygon class="a653272b-0f94-4c56-bc63-836dd9ba32bb" points="43.926 12.204 74.321 18.647 69.023 30.663 44.644 30.663 43.989 20.454 43.399 15.33 43.926 12.204"/>
    <circle class="b59eaf7a-6cd3-417b-9197-46e09fdbe776" cx="12.56838" cy="27.71749" r="11.06838"/>
    <circle class="b59eaf7a-6cd3-417b-9197-46e09fdbe776" cx="83.7423" cy="30.6634" r="8.12246"/>
    <polyline class="b59eaf7a-6cd3-417b-9197-46e09fdbe776" points="44.771 32.634 43.646 15.124 44.802 3.069 41.995 1.5"/>
    <polyline class="b59eaf7a-6cd3-417b-9197-46e09fdbe776" points="70.839 26.271 44.022 20.978 24.914 17.148"/>
    <line class="a207311d-d87d-4cbf-a700-42552f7fe152" x1="23.33922" y1="13.45287" x2="28.64262" y2="17.89554"/>
    <polyline class="b59eaf7a-6cd3-417b-9197-46e09fdbe776" points="75.62 15.702 69.023 30.663 44.644 30.663 29.053 26.859"/>
    <line class="b59eaf7a-6cd3-417b-9197-46e09fdbe776" x1="74.80232" y1="13.72016" x2="82.64634" y2="31.14214"/>
    <line class="b59eaf7a-6cd3-417b-9197-46e09fdbe776" x1="49.81155" y1="30.6634" x2="54.27025" y2="23.05432"/>
    <line class="b59eaf7a-6cd3-417b-9197-46e09fdbe776" x1="58.76514" y1="24.32333" x2="61.92161" y2="30.6634"/>
    <polyline class="b59eaf7a-6cd3-417b-9197-46e09fdbe776" points="12.568 27.717 29.857 28.748 19.371 4.142"/>
    <line class="b59eaf7a-6cd3-417b-9197-46e09fdbe776" x1="24.4905" y1="4.1422" x2="15.24281" y2="4.1422"/>
    <polyline class="a207311d-d87d-4cbf-a700-42552f7fe152" points="12.568 27.717 29.857 21.069 36.463 22.431 39.725 20.117"/>
    <circle class="e7c24a23-6933-4974-b43a-e0a232e4bc51" cx="12.56838" cy="27.71749" r="3.70655"/>
    <circle class="e7c24a23-6933-4974-b43a-e0a232e4bc51" cx="83.7423" cy="30.6634" r="0.59218"/>
    <path class="b910eb21-504a-4604-a5ce-e3dbb8256287" d="M34.20583,32.72771a11.099,11.099,0,0,1-3.75277,1.21675,3.17236,3.17236,0,0,1-3.19681-3.19681h0a3.19681,3.19681,0,0,1,3.19681-3.19681h2.843c1.76555,0,3.16257,1.00267,3.16257,2.52555S35.36179,32.17725,34.20583,32.72771Z"/>
  </g>
</svg>
