<svg id="be4cb0e9-3254-4164-bfdd-032c1af2e246" data-name="Layer 1" xmlns="http://www.w3.org/2000/svg" width="93.36476" height="40.28587" viewBox="0 0 93.36476 40.28587">
  <defs>
    <style>
      .aa817130-0332-41a5-92f5-3ddca02f1712 {
        fill: #58595b;
      }

      .ad4417ce-5f35-4f6b-b0f7-0e98c9029bfc, .b4dd427e-9673-4ec8-aca0-27218104618f, .b6db25e7-e209-41bf-9832-e18a416ed1d7 {
        fill: none;
        stroke: #231f20;
      }

      .ad4417ce-5f35-4f6b-b0f7-0e98c9029bfc, .b4dd427e-9673-4ec8-aca0-27218104618f {
        stroke-linecap: round;
        stroke-linejoin: round;
      }

      .ad4417ce-5f35-4f6b-b0f7-0e98c9029bfc {
        stroke-width: 3px;
      }

      .b4dd427e-9673-4ec8-aca0-27218104618f, .b6db25e7-e209-41bf-9832-e18a416ed1d7 {
        stroke-width: 2px;
      }

      .b6db25e7-e209-41bf-9832-e18a416ed1d7 {
        stroke-miterlimit: 10;
      }

      .a53f1ea7-3f87-46c7-b5be-74a06b117b51 {
        fill: #231f20;
      }
    </style>
  </defs>
  <title>RM icons - Load 60 low</title>
  <g>
    <path class="aa817130-0332-41a5-92f5-3ddca02f1712" d="M61.91819,18.79946l12.403-.1525L69.02251,30.6634H44.64438l-.65566-10.20956,14.10223,2.615,1.60246-2.9342A2.56442,2.56442,0,0,1,61.91819,18.79946Z"/>
    <circle class="ad4417ce-5f35-4f6b-b0f7-0e98c9029bfc" cx="12.56838" cy="27.71749" r="11.06838"/>
    <circle class="ad4417ce-5f35-4f6b-b0f7-0e98c9029bfc" cx="83.7423" cy="30.6634" r="8.12246"/>
    <polyline class="ad4417ce-5f35-4f6b-b0f7-0e98c9029bfc" points="44.771 32.634 43.646 15.124 44.802 3.069 41.995 1.5"/>
    <polyline class="ad4417ce-5f35-4f6b-b0f7-0e98c9029bfc" points="70.839 26.271 44.022 20.978 24.914 17.148"/>
    <line class="b4dd427e-9673-4ec8-aca0-27218104618f" x1="23.33922" y1="13.45287" x2="28.64262" y2="17.89554"/>
    <polyline class="ad4417ce-5f35-4f6b-b0f7-0e98c9029bfc" points="75.62 15.702 69.023 30.663 44.644 30.663 29.053 26.859"/>
    <line class="ad4417ce-5f35-4f6b-b0f7-0e98c9029bfc" x1="74.80232" y1="13.72016" x2="82.64634" y2="31.14214"/>
    <line class="ad4417ce-5f35-4f6b-b0f7-0e98c9029bfc" x1="49.81155" y1="30.6634" x2="54.27025" y2="23.05432"/>
    <line class="ad4417ce-5f35-4f6b-b0f7-0e98c9029bfc" x1="58.76514" y1="24.32333" x2="61.92161" y2="30.6634"/>
    <polyline class="ad4417ce-5f35-4f6b-b0f7-0e98c9029bfc" points="12.568 27.717 29.857 28.748 19.371 4.142"/>
    <line class="ad4417ce-5f35-4f6b-b0f7-0e98c9029bfc" x1="24.4905" y1="4.1422" x2="15.24281" y2="4.1422"/>
    <polyline class="b4dd427e-9673-4ec8-aca0-27218104618f" points="12.568 27.717 29.857 21.069 36.463 22.431 39.725 20.117"/>
    <circle class="b6db25e7-e209-41bf-9832-e18a416ed1d7" cx="12.56838" cy="27.71749" r="3.70655"/>
    <circle class="b6db25e7-e209-41bf-9832-e18a416ed1d7" cx="83.7423" cy="30.6634" r="0.59218"/>
    <path class="a53f1ea7-3f87-46c7-b5be-74a06b117b51" d="M33.40088,32.72771a11.099,11.099,0,0,1-3.75278,1.21675,3.17236,3.17236,0,0,1-3.1968-3.19681h0a3.19681,3.19681,0,0,1,3.1968-3.19681h2.843c1.76554,0,3.16257,1.00267,3.16257,2.52555S34.55684,32.17725,33.40088,32.72771Z"/>
  </g>
</svg>
