<svg id="ff51cd80-8414-4068-984c-b34c351d41d2" data-name="Layer 1" xmlns="http://www.w3.org/2000/svg" width="93.24676" height="43.09081" viewBox="0 0 93.24676 43.09081">
  <defs>
    <style>
      .a311d873-e296-4a3e-b368-489718e43193, .fb931e63-2f6d-4080-b4f2-7fe30c1d1600 {
        fill: none;
        stroke: #231f20;
      }

      .fb931e63-2f6d-4080-b4f2-7fe30c1d1600 {
        stroke-linecap: round;
        stroke-linejoin: round;
        stroke-width: 3px;
      }

      .a311d873-e296-4a3e-b368-489718e43193 {
        stroke-miterlimit: 10;
        stroke-width: 2px;
      }

      .abbfd034-2642-4afa-89a1-d39e0627601a {
        fill: #231f20;
      }
    </style>
  </defs>
  <title>RM icons - Packster 80 naked</title>
  <g>
    <g>
      <circle class="fb931e63-2f6d-4080-b4f2-7fe30c1d1600" cx="12.56838" cy="30.52243" r="11.06838"/>
      <polyline class="fb931e63-2f6d-4080-b4f2-7fe30c1d1600" points="13.967 27.427 70.486 31.728 76.38 16.775"/>
      <line class="fb931e63-2f6d-4080-b4f2-7fe30c1d1600" x1="29.48986" y1="32.38067" x2="19.74676" y2="3.31651"/>
      <line class="fb931e63-2f6d-4080-b4f2-7fe30c1d1600" x1="15.94861" y1="3.31651" x2="25.444" y2="3.31651"/>
      <polyline class="fb931e63-2f6d-4080-b4f2-7fe30c1d1600" points="42.949 30.977 42.949 1.5 45.591 1.5"/>
      <line class="fb931e63-2f6d-4080-b4f2-7fe30c1d1600" x1="82.65491" y1="32.38067" x2="75.96685" y2="14.54585"/>
      <line class="fb931e63-2f6d-4080-b4f2-7fe30c1d1600" x1="25.76002" y1="21.25437" x2="42.94855" y2="21.25437"/>
      <line class="fb931e63-2f6d-4080-b4f2-7fe30c1d1600" x1="23.91189" y1="16.2385" x2="13.96696" y2="27.42655"/>
      <circle class="a311d873-e296-4a3e-b368-489718e43193" cx="12.25518" cy="30.52243" r="3.70655"/>
      <circle class="a311d873-e296-4a3e-b368-489718e43193" cx="83.56317" cy="32.38067" r="0.59218"/>
      <line class="fb931e63-2f6d-4080-b4f2-7fe30c1d1600" x1="12.25518" y1="30.52243" x2="13.96696" y2="27.42655"/>
      <circle class="fb931e63-2f6d-4080-b4f2-7fe30c1d1600" cx="83.6243" cy="32.97285" r="8.12246"/>
    </g>
    <path class="abbfd034-2642-4afa-89a1-d39e0627601a" d="M32.83823,33.70805a11.09873,11.09873,0,0,1-3.75277,1.21675,3.17236,3.17236,0,0,1-3.19681-3.1968h0a3.19681,3.19681,0,0,1,3.19681-3.1968h2.843c1.76555,0,3.16257,1.00267,3.16257,2.52555S33.99419,33.15759,32.83823,33.70805Z"/>
  </g>
</svg>
