<svg id="fae3ecbb-589f-4f3d-b4dc-3d3a1254a900" data-name="Layer 1" xmlns="http://www.w3.org/2000/svg" width="89.24676" height="43.59531" viewBox="0 0 89.24676 43.59531">
  <defs>
    <style>
      .a68cbc06-2997-4740-bc8a-616e02c7cef9, .bee1bb6e-208c-402c-92b2-3ceaf99638df {
        fill: none;
        stroke: #231f20;
      }

      .bee1bb6e-208c-402c-92b2-3ceaf99638df {
        stroke-linecap: round;
        stroke-linejoin: round;
        stroke-width: 3px;
      }

      .a68cbc06-2997-4740-bc8a-616e02c7cef9 {
        stroke-miterlimit: 10;
        stroke-width: 2px;
      }

      .b11ac1ee-ddc7-4648-837b-75b4e01ddf41 {
        fill: #231f20;
      }
    </style>
  </defs>
  <title>RM icons - Packster 60 naked</title>
  <g>
    <g>
      <circle class="bee1bb6e-208c-402c-92b2-3ceaf99638df" cx="12.56838" cy="30.52243" r="11.06838"/>
      <polyline class="bee1bb6e-208c-402c-92b2-3ceaf99638df" points="13.967 27.427 65.795 32.731 73.029 18.377"/>
      <line class="bee1bb6e-208c-402c-92b2-3ceaf99638df" x1="29.48986" y1="32.38067" x2="19.74676" y2="3.31651"/>
      <line class="bee1bb6e-208c-402c-92b2-3ceaf99638df" x1="15.94861" y1="3.31651" x2="25.444" y2="3.31651"/>
      <polyline class="bee1bb6e-208c-402c-92b2-3ceaf99638df" points="42.949 30.977 42.949 1.5 45.591 1.5"/>
      <line class="bee1bb6e-208c-402c-92b2-3ceaf99638df" x1="78.65491" y1="33.38067" x2="72.2266" y2="16.2385"/>
      <line class="bee1bb6e-208c-402c-92b2-3ceaf99638df" x1="25.76002" y1="21.25437" x2="42.94855" y2="21.25437"/>
      <line class="bee1bb6e-208c-402c-92b2-3ceaf99638df" x1="23.91189" y1="16.2385" x2="13.96696" y2="27.42655"/>
      <circle class="a68cbc06-2997-4740-bc8a-616e02c7cef9" cx="12.25518" cy="30.52243" r="3.70655"/>
      <circle class="a68cbc06-2997-4740-bc8a-616e02c7cef9" cx="79.56317" cy="33.38067" r="0.59218"/>
      <line class="bee1bb6e-208c-402c-92b2-3ceaf99638df" x1="12.25518" y1="30.52243" x2="13.96696" y2="27.42655"/>
      <circle class="bee1bb6e-208c-402c-92b2-3ceaf99638df" cx="79.6243" cy="33.97285" r="8.12246"/>
    </g>
    <path class="b11ac1ee-ddc7-4648-837b-75b4e01ddf41" d="M32.83823,34.36073a11.099,11.099,0,0,1-3.75277,1.21675,3.17237,3.17237,0,0,1-3.19681-3.19681h0a3.19681,3.19681,0,0,1,3.19681-3.19681h2.843c1.76555,0,3.16257,1.00267,3.16257,2.52555S33.99419,33.81027,32.83823,34.36073Z"/>
  </g>
</svg>
